Coordinates
version=1
nRows=38
nColumns=12
inDegrees=yes

Units are S.I. units (second, meters, Newtons, ...)
Angles are in degrees

endheader
time	SC_y	SC_z	SC_x	AC_y	AC_z	AC_x	GH_y	GH_z	GH_yy	EL_x	PS_y
       0.0              -48.91          6.965          75.52          58.75          -2.88         -11.32         -119.3          65.11         -54.93           37.7          139.6
  0.005099              -48.91          6.969          75.51          58.75         -2.883         -11.32         -119.3           65.1         -54.93           37.7          139.6
    0.0102              -48.91          6.974           75.5          58.74         -2.885         -11.33         -119.3           65.1         -54.93          37.71          139.6
    0.0153               -48.9          6.979          75.49          58.74         -2.887         -11.33         -119.3          65.09         -54.93          37.71          139.5
    0.0204               -48.9          6.984          75.48          58.74          -2.89         -11.33         -119.3          65.08         -54.93          37.71          139.5
   0.02549               -48.9          6.989          75.47          58.73         -2.893         -11.33         -119.3          65.07         -54.93          37.72          139.5
   0.03059               -48.9          6.995          75.46          58.73         -2.896         -11.33         -119.3          65.06         -54.93          37.72          139.5
   0.03569              -48.89          7.002          75.44          58.72         -2.899         -11.33         -119.3          65.05         -54.93          37.73          139.5
   0.04079              -48.89          7.009          75.43          58.71         -2.903         -11.33         -119.3          65.04         -54.93          37.73          139.4
   0.04589              -48.89          7.016          75.41          58.71         -2.907         -11.34         -119.2          65.03         -54.93          37.74          139.4
   0.05099              -48.88          7.024          75.39           58.7         -2.911         -11.34         -119.2          65.01         -54.93          37.75          139.4
   0.05609              -48.88          7.032          75.37          58.69         -2.915         -11.34         -119.2           65.0         -54.93          37.75          139.4
   0.06119              -48.88          7.041          75.36          58.69          -2.92         -11.34         -119.2          64.98         -54.93          37.76          139.3
   0.06629              -48.87          7.051          75.33          58.68         -2.925         -11.35         -119.2          64.97         -54.93          37.77          139.3
   0.07138              -48.87          7.062          75.31          58.67          -2.93         -11.35         -119.2          64.95         -54.93          37.78          139.3
   0.07648              -48.86          7.074          75.29          58.66         -2.936         -11.35         -119.2          64.93         -54.94          37.79          139.2
   0.08158              -48.86          7.086          75.26          58.65         -2.943         -11.35         -119.2          64.91         -54.94           37.8          139.2
   0.08668              -48.85            7.1          75.23          58.63          -2.95         -11.36         -119.2          64.88         -54.94          37.81          139.1
   0.09178              -48.85          7.115           75.2          58.62         -2.957         -11.36         -119.2          64.86         -54.94          37.82          139.1
   0.09688              -48.84          7.131          75.16          58.61         -2.966         -11.37         -119.2          64.83         -54.94          37.83          139.0
     0.102              -48.83          7.149          75.12          58.59         -2.975         -11.37         -119.1           64.8         -54.94          37.85          139.0
    0.1071              -48.82          7.169          75.08          58.57         -2.985         -11.38         -119.1          64.77         -54.94          37.86          138.9
    0.1122              -48.82          7.191          75.03          58.55         -2.996         -11.38         -119.1          64.73         -54.94          37.88          138.8
    0.1173              -48.81          7.215          74.98          58.53         -3.009         -11.39         -119.1          64.69         -54.94           37.9          138.7
    0.1224              -48.79          7.242          74.92          58.51         -3.023          -11.4         -119.1          64.64         -54.94          37.92          138.7
    0.1275              -48.78          7.272          74.85          58.48         -3.038          -11.4         -119.1          64.59         -54.94          37.95          138.6
    0.1326              -48.77          7.306          74.78          58.45         -3.055         -11.41         -119.0          64.54         -54.95          37.98          138.4
    0.1377              -48.75          7.344           74.7          58.42         -3.075         -11.42         -119.0          64.47         -54.95          38.01          138.3
    0.1428              -48.74          7.387           74.6          58.38         -3.097         -11.43         -119.0           64.4         -54.95          38.04          138.2
    0.1479              -48.72          7.435           74.5          58.34         -3.122         -11.45         -118.9          64.32         -54.95          38.08          138.0
     0.153              -48.69          7.491          74.38          58.29          -3.15         -11.46         -118.9          64.22         -54.95          38.13          137.8
    0.1581              -48.67          7.555          74.24          58.24         -3.183         -11.48         -118.9          64.12         -54.96          38.18          137.6
    0.1632              -48.64          7.628          74.08          58.17         -3.221          -11.5         -118.8          63.99         -54.96          38.24          137.3
    0.1683               -48.6          7.714          73.89           58.1         -3.265         -11.52         -118.7          63.85         -54.96          38.31          137.1
    0.1734              -48.56          7.814          73.68          58.01         -3.316         -11.54         -118.7          63.68         -54.97          38.39          136.7
    0.1785              -48.51          7.932          73.42          57.91         -3.376         -11.57         -118.6          63.48         -54.97          38.48          136.3
    0.1836              -48.45          8.072          73.12          57.78         -3.448         -11.61         -118.5          63.24         -54.98           38.6          135.8
    0.1887              -48.38           8.24          72.75          57.64         -3.534         -11.65         -118.3          62.96         -54.98          38.73          135.3
